<?xml version="1.0" encoding="UTF-8"?>
<svg width="78px" height="70px" viewBox="0 0 78 70" version="1.1" xmlns="http://www.w3.org/2000/svg" xmlns:xlink="http://www.w3.org/1999/xlink">
    <!-- Generator: Sketch 60 (88103) - https://sketch.com -->
    <title>icon/behanc</title>
    <desc>Created with Sketch.</desc>
    <g id="web" stroke="none" stroke-width="1" fill="none" fill-rule="evenodd">
        <g id="portfolio" transform="translate(-222.000000, -1264.000000)">
            <g id="icon/behanc" transform="translate(222.000000, 1264.000000)">
                <rect id="Rectangle-Copy" fill="#F5F8FA" x="0" y="0" width="78" height="70" rx="8"></rect>
                <g id="behance" stroke-width="1" transform="translate(15.000000, 19.000000)" fill="#AAB8C2">
                    <path d="M41.3028571,3.08571429 L29.7142857,3.08571429 L29.7142857,6.30857143 L41.3485714,6.30857143 L41.3028571,3.08571429 Z M38.8571429,25.2571429 C37.9780072,25.8396569 36.9398301,26.1351381 35.8857143,26.1028571 C34.4751681,26.2499102 33.0671278,25.8026503 32,24.8685714 C31.0240257,23.7620059 30.5159287,22.319666 30.5828571,20.8457143 L45.7142857,20.8457143 C45.8233583,19.3109693 45.6922572,17.7686034 45.3257143,16.2742857 C44.9711394,14.8526255 44.3506969,13.5109185 43.4971429,12.32 C42.6379933,11.1648043 41.5283206,10.2192381 40.2514286,9.55428571 C38.8307305,8.85380736 37.2638101,8.50125028 35.68,8.52571429 C34.1904325,8.51480596 32.7137688,8.8023668 31.3371429,9.37142857 C30.0765743,9.90284084 28.9343848,10.6798405 27.9771429,11.6571429 C27.0226116,12.653977 26.2834672,13.836608 25.8057143,15.1314286 C25.2930314,16.5292619 25.037487,18.008322 25.0514286,19.4971429 C25.0279046,21.0070996 25.2756435,22.5090162 25.7828571,23.9314286 C26.213673,25.2194968 26.8975384,26.4084899 27.7942857,27.4285714 C28.7220655,28.4300699 29.8623485,29.2110857 31.1314286,29.7142857 C32.5465208,30.253448 34.0516085,30.5172262 35.5657143,30.4914286 C37.6900992,30.5576616 39.7875211,30.001527 41.6,28.8914286 C43.4306476,27.5905607 44.7486493,25.6903742 45.3257143,23.52 L40.2742857,23.52 C40.0038531,24.2380208 39.5062232,24.8480189 38.8571429,25.2571429 Z M31.0171429,15.84 C31.3768803,14.6876144 32.2071614,13.7410939 33.3028571,13.2342857 C34.0204734,12.9112804 34.8019236,12.7549904 35.5885714,12.7771429 C36.7385587,12.6789217 37.8740605,13.0880363 38.6971429,13.8971429 C39.4737941,14.8478507 39.9721886,15.994949 40.1371429,17.2114286 L30.6514286,17.2114286 C30.6884235,16.7469304 30.7726684,16.2874127 30.9028571,15.84 L31.0171429,15.84 Z M18.9257143,14.7428571 C20.0890551,14.2584298 21.0999084,13.4687007 21.8514286,12.4571429 C22.5422249,11.3828669 22.8853988,10.1219024 22.8342857,8.84571429 C22.8790915,7.68191579 22.6521404,6.52368259 22.1714286,5.46285714 C21.7675738,4.54381059 21.1192748,3.75320214 20.2971429,3.17714286 C19.4254915,2.57822423 18.4356725,2.17294403 17.3942857,1.98857143 C16.1618746,1.7300877 14.9048464,1.6074508 13.6457143,1.62285714 L0,1.62285714 L0,30.3771468 L13.9428571,30.3771468 C15.2152898,30.3780612 16.4826486,30.216761 17.7142857,29.8971429 C18.8817024,29.5951401 19.9877043,29.0924119 20.9828571,28.4114286 C21.9468303,27.7433442 22.7317711,26.8485117 23.2685714,25.8057143 C23.8626494,24.6395153 24.1534964,23.3424949 24.1142857,22.0342857 C24.1575763,20.4131136 23.7028642,18.8176323 22.8114286,17.4628571 C21.8527724,16.1003965 20.4309034,15.1335256 18.8114286,14.7428571 L18.9257143,14.7428571 Z M6.33142857,6.53713561 L12.2514286,6.53713561 C12.795303,6.53647232 13.3382369,6.58235406 13.8742857,6.67428571 C14.367884,6.74743429 14.8419107,6.91839472 15.2685714,7.17714286 C15.6807926,7.41031791 16.0148112,7.76024211 16.2285714,8.18285714 C16.4933021,8.689641 16.6194627,9.25736364 16.5942857,9.82857143 C16.6806861,10.826683 16.2807472,11.8052569 15.52,12.4571429 C14.7019885,13.0195002 13.7231568,13.3003126 12.7314286,13.2571429 L6.33142857,13.2571429 L6.33142857,6.53713561 Z M17.3942857,23.5428571 C17.159452,24.0086989 16.8043312,24.4032775 16.3657143,24.6857143 C15.9092677,24.9696185 15.4063263,25.170795 14.88,25.28 C14.294989,25.41095 13.6965559,25.4723277 13.0971429,25.4628571 L6.24,25.4628571 L6.24,17.5771429 L13.0971429,17.5771429 C14.273864,17.5256147 15.4359232,17.8541969 16.4114286,18.5142857 C17.30525,19.3164053 17.7636134,20.4962665 17.6457143,21.6914286 C17.7075117,22.3197357 17.6214061,22.9537858 17.3942857,23.5428571 L17.3942857,23.5428571 Z" id="Shape" fill-rule="nonzero"></path>
                </g>
            </g>
        </g>
    </g>
</svg>