<?xml version="1.0" encoding="UTF-8"?>
<svg width="78px" height="70px" viewBox="0 0 78 70" version="1.1" xmlns="http://www.w3.org/2000/svg" xmlns:xlink="http://www.w3.org/1999/xlink">
    <!-- Generator: Sketch 60 (88103) - https://sketch.com -->
    <title>icon/dribbble hover</title>
    <desc>Created with Sketch.</desc>
    <g id="icon/dribbble-hover" stroke="none" stroke-width="1" fill="none" fill-rule="evenodd">
        <rect id="Rectangle" fill="#EA4C89" x="0" y="0" width="78" height="70" rx="8"></rect>
        <g id="dribbble" transform="translate(15.000000, 11.000000)" fill-rule="nonzero">
            <path d="M24,0 C10.745166,0 0,10.745166 0,24 C0,37.254834 10.745166,48 24,48 C37.254834,48 48,37.254834 48,24 C48,17.6348042 45.4714358,11.5303103 40.9705627,7.02943725 C36.4696897,2.52856417 30.3651958,0 24,0 Z" id="Path" fill="#EA4C89"></path>
            <path d="M24,-4.4408921e-16 C10.745166,-4.4408921e-16 1.77635684e-15,10.745166 1.77635684e-15,24 C1.77635684e-15,37.254834 10.745166,48 24,48 C37.254834,48 48,37.254834 48,24 C48,17.6348042 45.4714358,11.5303103 40.9705627,7.02943725 C36.4696897,2.52856417 30.3651958,-4.4408921e-16 24,-4.4408921e-16 Z M24,4.79999848 C28.9313477,4.79803291 33.6714423,6.70783513 37.224,10.128 C33.5568545,12.2788838 29.6709071,14.0327897 25.632,15.36 C23.6219688,11.8963819 21.3174588,8.6122544 18.744,5.544 C20.4527077,5.05199369 22.221869,4.80156446 24,4.79999848 L24,4.79999848 Z M14.136,7.56 C16.6504384,10.4364126 18.9071261,13.5283157 20.88,16.8 C16.1690414,17.9697701 11.3340081,18.5660909 6.48,18.576 L5.616,18.576 C6.9772849,13.9671364 10.0174467,10.0363357 14.136,7.56 Z M9.6,36.744 C6.4770095,33.2370074 4.76659016,28.695844 4.8,24 C4.8,23.76 4.8,23.52 4.8,23.304 L6.432,23.304 C12.113701,23.2532058 17.7633446,22.4461139 23.232,20.904 C24,22.368 24.72,23.88 25.416,25.44 C21.675579,26.7586111 18.1920182,28.7155765 15.12,31.224 L14.4,31.8 C12.6890826,33.3365642 11.0853353,34.988424 9.6,36.744 Z M24,43.2 C20.1746123,43.2084852 16.4356713,42.0625458 13.272,39.912 C14.4404176,38.5718247 15.6908171,37.3053944 17.016,36.12 L17.784,35.472 C20.6235939,33.0837532 23.8775342,31.2371421 27.384,30.024 C28.8272056,33.9263809 29.9509037,37.9395885 30.744,42.024 C28.5835272,42.8128325 26.2999517,43.2110361 24,43.2 Z M35.112,39.624 C34.3267904,35.9917516 33.3005189,32.4158368 32.04,28.92 L32.856,28.92 C32.9505763,28.8966183 33.0494237,28.8966183 33.144,28.92 L33.408,28.92 L33.648,28.92 L34.8,28.92 C37.3256586,28.9272271 39.8322931,29.3571677 42.216,30.192 C40.9063874,34.0088665 38.4189281,37.3114729 35.112,39.624 L35.112,39.624 Z M34.8,24 C34.296,24 33.792,24 33.312,24 C33.0012284,23.9608465 32.6867716,23.9608465 32.376,24 C31.7236918,24.0400625 31.0744658,24.1202138 30.432,24.24 L30.192,24.24 C29.496,22.632 28.776,21.072 27.984,19.44 C32.2814963,17.9641361 36.4089388,16.0331689 40.296,13.68 C42.2242512,16.7744839 43.231523,20.3540448 43.2,24 C43.2,24.408 43.2,24.816 43.2,25.224 C40.4800411,24.3845231 37.6464175,23.9716236 34.8,24 L34.8,24 Z" id="Shape" fill="#FFFFFF"></path>
        </g>
    </g>
</svg>