<?xml version="1.0" encoding="UTF-8"?>
<svg width="180px" height="96px" viewBox="0 0 180 96" version="1.1" xmlns="http://www.w3.org/2000/svg" xmlns:xlink="http://www.w3.org/1999/xlink">
    <!-- Generator: Sketch 60 (88103) - https://sketch.com -->
    <title>component/chat/email hover</title>
    <desc>Created with Sketch.</desc>
    <g id="component/chat/email-hover" stroke="none" stroke-width="1" fill="none" fill-rule="evenodd">
        <rect id="Rectangle-Copy-6" fill="#F5F8FA" x="0" y="0" width="180" height="96" rx="8"></rect>
        <g id="fast-mail" transform="translate(67.000000, 19.000000)" fill="#1DA1F2" fill-rule="nonzero">
            <path d="M7.26909091,8.75 L2.90545455,8.75 C1.70046964,8.75 0.723636364,9.72004971 0.723636364,10.9166667 C0.723636364,12.1132836 1.70046964,13.0833333 2.90545455,13.0833333 L7.26909091,13.0833333 C8.47407582,13.0833333 9.45090909,12.1132836 9.45090909,10.9166667 C9.45090909,9.72004971 8.47407582,8.75 7.26909091,8.75 Z M43.88,2.59666667 L43.88,2.46666667 L43.88,2.46666667 L43.88,2.46666667 C42.6135628,0.929415494 40.7088771,0.051523236 38.7090909,0.0833333333 L21.4072727,0.0833333333 C19.8040804,0.0690335335 18.2513587,0.639550937 17.0436364,1.68666667 L17.0436364,1.68666667 L17.0436364,1.68666667 C15.9156443,2.6736551 15.1740222,4.02385365 14.9490909,5.5 L13.0290909,16.3333333 C12.694866,18.2271876 13.2221156,20.1708103 14.4690909,21.6416667 C15.7094362,23.1074748 17.5374539,23.9556825 19.4654545,23.96 L36.7890909,23.96 C40.0036748,24.0082619 42.7776546,21.73103 43.3345455,18.5866667 L45.2545455,7.75333333 C45.5604215,5.91831631 45.0600327,4.04108636 43.88,2.59666667 Z M37.9018182,4.41666667 L30.4836364,10.3966667 C29.5722574,11.1260854 28.2436432,11.011356 27.4727273,10.1366667 L22.3890909,4.41666667 L37.9018182,4.41666667 Z M38.9490909,17.785 C38.7666312,18.8359977 37.8411194,19.5988378 36.7672727,19.5833333 L19.4654545,19.5833333 C18.8241516,19.5779809 18.2176985,19.2927085 17.8072727,18.8033333 C17.3958261,18.3165536 17.2203393,17.6749299 17.3272727,17.0483333 L19.0727273,7.23333333 L24.2,12.9966667 C26.5189365,15.6140193 30.5042235,15.9486 33.2327273,13.755 L40.7381818,7.66666667 L38.9490909,17.785 Z M9.45090909,0.0833333333 L2.90545455,0.0833333333 C1.70046964,0.0833333333 0.723636364,1.05338304 0.723636364,2.25 C0.723636364,3.44661696 1.70046964,4.41666667 2.90545455,4.41666667 L9.45090909,4.41666667 C10.655894,4.41666667 11.6327273,3.44661696 11.6327273,2.25 C11.6327273,1.05338304 10.655894,0.0833333333 9.45090909,0.0833333333 Z" id="Shape"></path>
        </g>
        <text id="Send-us-an-e-mail" font-family="Geomanist-Regular, Geomanist" font-size="14" font-weight="normal" line-spacing="25" fill="#657786">
            <tspan x="36.009" y="73">Send us an e-mail</tspan>
        </text>
    </g>
</svg>