<?xml version="1.0" encoding="UTF-8"?>
<svg width="180px" height="96px" viewBox="0 0 180 96" version="1.1" xmlns="http://www.w3.org/2000/svg" xmlns:xlink="http://www.w3.org/1999/xlink">
    <!-- Generator: Sketch 60 (88103) - https://sketch.com -->
    <title>component/chat/email</title>
    <desc>Created with Sketch.</desc>
    <g id="web" stroke="none" stroke-width="1" fill="none" fill-rule="evenodd">
        <g id="portfolio" transform="translate(-120.000000, -1586.000000)">
            <g id="component/chat/email" transform="translate(120.000000, 1586.000000)">
                <rect id="Rectangle-Copy-6" fill="#F5F8FA" fill-rule="evenodd" x="0" y="0" width="180" height="96" rx="8"></rect>
                <g id="fast-mail" stroke-width="1" fill-rule="evenodd" transform="translate(66.000000, 18.000000)" fill="#AAB8C2">
                    <path d="M8.26909091,9.75 L3.90545455,9.75 C2.70046964,9.75 1.72363636,10.7200497 1.72363636,11.9166667 C1.72363636,13.1132836 2.70046964,14.0833333 3.90545455,14.0833333 L8.26909091,14.0833333 C9.47407582,14.0833333 10.4509091,13.1132836 10.4509091,11.9166667 C10.4509091,10.7200497 9.47407582,9.75 8.26909091,9.75 Z M44.88,3.59666667 L44.88,3.46666667 L44.88,3.46666667 L44.88,3.46666667 C43.6135628,1.92941549 41.7088771,1.05152324 39.7090909,1.08333333 L22.4072727,1.08333333 C20.8040804,1.06903353 19.2513587,1.63955094 18.0436364,2.68666667 L18.0436364,2.68666667 L18.0436364,2.68666667 C16.9156443,3.6736551 16.1740222,5.02385365 15.9490909,6.5 L14.0290909,17.3333333 C13.694866,19.2271876 14.2221156,21.1708103 15.4690909,22.6416667 C16.7094362,24.1074748 18.5374539,24.9556825 20.4654545,24.96 L37.7890909,24.96 C41.0036748,25.0082619 43.7776546,22.73103 44.3345455,19.5866667 L46.2545455,8.75333333 C46.5604215,6.91831631 46.0600327,5.04108636 44.88,3.59666667 Z M38.9018182,5.41666667 L31.4836364,11.3966667 C30.5722574,12.1260854 29.2436432,12.011356 28.4727273,11.1366667 L23.3890909,5.41666667 L38.9018182,5.41666667 Z M39.9490909,18.785 C39.7666312,19.8359977 38.8411194,20.5988378 37.7672727,20.5833333 L20.4654545,20.5833333 C19.8241516,20.5779809 19.2176985,20.2927085 18.8072727,19.8033333 C18.3958261,19.3165536 18.2203393,18.6749299 18.3272727,18.0483333 L20.0727273,8.23333333 L25.2,13.9966667 C27.5189365,16.6140193 31.5042235,16.9486 34.2327273,14.755 L41.7381818,8.66666667 L39.9490909,18.785 Z M10.4509091,1.08333333 L3.90545455,1.08333333 C2.70046964,1.08333333 1.72363636,2.05338304 1.72363636,3.25 C1.72363636,4.44661696 2.70046964,5.41666667 3.90545455,5.41666667 L10.4509091,5.41666667 C11.655894,5.41666667 12.6327273,4.44661696 12.6327273,3.25 C12.6327273,2.05338304 11.655894,1.08333333 10.4509091,1.08333333 Z" id="Shape" fill-rule="nonzero"></path>
                </g>
                <text id="Send-us-an-e-mail" font-family="Geomanist-Regular, Geomanist" font-size="14" font-weight="normal" line-spacing="25" fill="#657786">
                    <tspan x="36.009" y="73">Send us an e-mail</tspan>
                </text>
            </g>
        </g>
    </g>
</svg>