<?xml version="1.0" encoding="UTF-8"?>
<svg width="78px" height="70px" viewBox="0 0 78 70" version="1.1" xmlns="http://www.w3.org/2000/svg" xmlns:xlink="http://www.w3.org/1999/xlink">
    <!-- Generator: Sketch 60 (88103) - https://sketch.com -->
    <title>icon/instagram hover</title>
    <desc>Created with Sketch.</desc>
    <defs>
        <linearGradient x1="100%" y1="9.7304405%" x2="0%" y2="90.2695595%" id="linearGradient-1">
            <stop stop-color="#B900B4" offset="0%"></stop>
            <stop stop-color="#F50000" offset="100%"></stop>
        </linearGradient>
    </defs>
    <g id="icon/instagram-hover" stroke="none" stroke-width="1" fill="none" fill-rule="evenodd">
        <rect id="Rectangle-Copy-5" fill="url(#linearGradient-1)" x="0" y="0" width="78" height="70" rx="8"></rect>
        <g id="instagram" transform="translate(15.000000, 11.000000)" fill="#FFFFFF" fill-rule="nonzero">
            <path d="M36.816,8.304 L36.816,8.304 C35.6511487,8.304 34.6009962,9.00568947 34.1552269,10.0818717 C33.7094577,11.158054 33.9558582,12.3967933 34.7795325,13.2204675 C35.6032067,14.0441418 36.841946,14.2905423 37.9181283,13.8447731 C38.9943105,13.3990038 39.696,12.3488513 39.696,11.184 C39.696,9.59341992 38.4065801,8.304 36.816,8.304 L36.816,8.304 Z M47.856,14.112 C47.8093254,12.1207158 47.4363755,10.1505672 46.752,8.28 C46.1417566,6.67951824 45.1919657,5.23026833 43.968,4.032 C42.7795737,2.80182215 41.3269446,1.85802356 39.72,1.272 C37.8543763,0.566785932 35.8820342,0.185304125 33.888,0.144 C31.344,0 30.528,0 24,0 C17.472,0 16.656,0 14.112,0.144 C12.1179658,0.185304125 10.1456237,0.566785932 8.28,1.272 C6.67602377,1.86395656 5.22464123,2.80694522 4.032,4.032 C2.80182215,5.22042628 1.85802356,6.6730554 1.272,8.28 C0.566785932,10.1456237 0.185304125,12.1179658 0.144,14.112 C0,16.656 0,17.472 0,24 C0,30.528 0,31.344 0.144,33.888 C0.185304125,35.8820342 0.566785932,37.8543763 1.272,39.72 C1.85802356,41.3269446 2.80182215,42.7795737 4.032,43.968 C5.22464123,45.1930548 6.67602377,46.1360434 8.28,46.728 C10.1456237,47.4332141 12.1179658,47.8146959 14.112,47.856 C16.656,48 17.472,48 24,48 C30.528,48 31.344,48 33.888,47.856 C35.8820342,47.8146959 37.8543763,47.4332141 39.72,46.728 C41.3269446,46.1419764 42.7795737,45.1981779 43.968,43.968 C45.197381,42.7741929 46.1480083,41.3236668 46.752,39.72 C47.4363755,37.8494328 47.8093254,35.8792842 47.856,33.888 C47.856,31.344 48,30.528 48,24 C48,17.472 48,16.656 47.856,14.112 Z M43.536,33.6 C43.5185264,35.1234508 43.2426082,36.6328857 42.72,38.064 C42.3368013,39.1084646 41.7213106,40.052217 40.92,40.824 C40.1415535,41.6172154 39.1997431,42.2314395 38.16,42.624 C36.7288857,43.1466082 35.2194508,43.4225264 33.696,43.44 C31.296,43.56 30.408,43.584 24.096,43.584 C17.784,43.584 16.896,43.584 14.496,43.44 C12.9141378,43.4696185 11.3390277,43.2260448 9.84,42.72 C8.84587618,42.3073861 7.94725422,41.6946893 7.2,40.92 C6.40341256,40.1489962 5.79562334,39.2044589 5.424,38.16 C4.83805485,36.7083658 4.51306454,35.1646617 4.464,33.6 C4.464,31.2 4.32,30.312 4.32,24 C4.32,17.688 4.32,16.8 4.464,14.4 C4.47475778,12.8425331 4.7590802,11.2990686 5.304,9.84 C5.72651292,8.82698677 6.37503589,7.9239801 7.2,7.2 C7.92915219,6.37480376 8.83029074,5.71943027 9.84,5.28 C11.3029226,4.75210495 12.8447935,4.4761912 14.4,4.464 C16.8,4.464 17.688,4.32 24,4.32 C30.312,4.32 31.2,4.32 33.6,4.464 C35.1234508,4.48147362 36.6328857,4.75739183 38.064,5.28 C39.1546312,5.68476595 40.1335046,6.34283208 40.92,7.2 C41.7064847,7.9372281 42.3210282,8.83855854 42.72,9.84 C43.2534073,11.3014409 43.5294928,12.8442718 43.536,14.4 C43.656,16.8 43.68,17.688 43.68,24 C43.68,30.312 43.656,31.2 43.536,33.6 Z M24,11.687906 C17.2034101,11.7012487 11.7031822,17.2193717 11.7119998,24.0159688 C11.7208386,30.8125659 17.235383,36.3163817 24.0319844,36.3119767 C30.8285858,36.3075664 36.3360237,30.7966028 36.3360237,24 C36.3424146,20.7285291 35.0440222,17.5895518 32.7284871,15.2785217 C30.412952,12.9674915 27.2714522,11.6752145 24,11.687906 Z M24,31.992 C19.5861403,31.992 16.008,28.4138597 16.008,24 C16.008,19.5861403 19.5861403,16.008 24,16.008 C28.4138597,16.008 31.992,19.5861403 31.992,24 C31.992,26.1196102 31.1499881,28.1524067 29.6511974,29.6511974 C28.1524067,31.1499881 26.1196102,31.992 24,31.992 Z" id="Shape"></path>
        </g>
    </g>
</svg>