<?xml version="1.0" encoding="UTF-8"?>
<svg width="34px" height="44px" viewBox="0 0 34 44" version="1.1" xmlns="http://www.w3.org/2000/svg" xmlns:xlink="http://www.w3.org/1999/xlink">
    <!-- Generator: Sketch 60 (88103) - https://sketch.com -->
    <title>logo blue</title>
    <desc>Created with Sketch.</desc>
    <defs>
        <linearGradient x1="50%" y1="0%" x2="50%" y2="100%" id="linearGradient-1">
            <stop stop-color="#00BEF6" offset="0%"></stop>
            <stop stop-color="#1DA1F2" offset="100%"></stop>
        </linearGradient>
    </defs>
    <g id="Symbols" stroke="none" stroke-width="1" fill="none" fill-rule="evenodd">
        <g id="logo-text" transform="translate(-5.000000, 0.000000)">
            <g id="logo-blue">
                <g id="Group" transform="translate(5.500000, 0.000000)">
                    <path d="M26.563537,22.0071192 L29.7799384,18.7924498 C29.7831438,18.7893173 29.7861354,18.7860425 29.7893408,18.7829101 C31.7837875,16.7918867 33.0177089,14.0399645 33.0177089,11 C33.0177089,4.92484079 28.0902147,0 22.0118534,0 C22.0104288,0 22.0090755,0 22.0076509,0 L4.27381435,0 C1.91352915,0 0,1.91249871 0,4.27158408 L0,39.7284871 C0,42.0875725 1.91352915,44 4.27381435,44 L21.9924788,44 L22.0026647,44 L22.0118534,44 C22.0375676,44 22.063068,43.9991457 22.0887821,43.9989321 C22.1482594,43.9984338 22.2076654,43.9982202 22.2671426,43.9967252 C28.2275466,43.8611046 33.0177089,38.9898001 33.0177089,32.9999288 C33.0177089,29.7979316 31.6483788,26.9157994 29.4635337,24.9055543 L26.563537,22.0071192 Z" id="Fill-1" fill="url(#linearGradient-1)"></path>
                    <path d="M7.8368206,0.0182599556 L7.8368125,17.7943047 L18.3009579,7.33952459 C20.3258899,5.31626568 23.5961014,5.29603309 25.6460097,7.27881148 L25.7077521,7.33950878 C27.7332444,9.36323974 27.7534993,12.6321163 25.7685238,14.6807433 L25.7077592,14.7424468 L18.4203594,22.0235469 L25.676836,29.2736672 C27.7291905,31.3243245 27.749714,34.6366481 25.738325,36.7126204 L25.6767518,36.7751476 C24.7379376,37.7129692 23.4695476,38.2455262 22.143801,38.2604475 L22.0877502,38.2604475 L2.84482759e-05,38.2604475 L2.84482759e-05,36.1979475 L22.0877502,36.1979475 C22.8871536,36.1979475 23.653832,35.8806547 24.2190316,35.3160527 C25.4731879,34.0629335 25.4857294,32.0394128 24.2566714,30.7709007 L24.2190472,30.7326936 L16.938055,23.4580329 C16.1535335,22.6741936 16.1453614,21.4080638 16.9135318,20.6140433 L16.9380479,20.589127 L24.2499789,13.283412 C25.4896283,12.0448405 25.4896283,10.0371222 24.2499789,8.79855076 C23.0222378,7.57187731 21.0389786,7.55961057 19.7961745,8.76175534 L19.758742,8.7985557 L9.23780842,19.310198 C7.97251708,20.5745324 5.81793818,19.7007671 5.77497313,17.9297587 L5.7743206,17.8758185 L5.7743206,0.0182599556 L7.8368206,0.0182599556 Z" id="Stroke-4" fill="#FFFFFF" fill-rule="nonzero"></path>
                </g>
            </g>
        </g>
    </g>
</svg>